<?xml version="1.0" encoding="UTF-8"?>
<svg id="Capa_2" data-name="Capa 2" xmlns="http://www.w3.org/2000/svg" viewBox="0 0 919.73 257.93">
  <defs>
    <style>
      .cls-1 {
        fill: #fbbf47;
      }

      .cls-2 {
        fill: #f1edd2;
      }

      .cls-3 {
        fill: #313133;
        font-family: Arial-Black, Arial;
        font-size: 46.29px;
        font-weight: 800;
      }
    </style>
  </defs>
  <g id="Capa_1-2" data-name="Capa 1">
    <g>
      <path class="cls-2" d="M814.34,230.26V70.48L742.69,0h-31.95l70.43,70.48v187.45h110.88c15.28,0,27.67-12.39,27.67-27.67h0s-105.39,0-105.39,0Z"/>
      <polygon class="cls-1" points="914.4 138.86 830.26 138.86 830.26 77.07 892.05 77.07 914.4 138.86"/>
      <text class="cls-3" transform="translate(843.26 124.27)"><tspan x="0" y="0">N</tspan></text>
      <polygon class="cls-2" points="846.96 25.32 821.5 1.29 759.71 1.29 785.17 25.32 846.96 25.32"/>
      <polygon class="cls-1" points="889.52 65.67 858.12 35.7 796.33 35.7 827.74 65.67 889.52 65.67"/>
    </g>
    <rect class="cls-2" x="397.9" y="107.96" width="361.81" height="149.97"/>
    <polygon class="cls-2" points="361.81 69.69 0 69.69 36.09 1.7 397.9 1.7 361.81 69.69"/>
    <polygon class="cls-2" points="759.71 69.55 397.9 69.55 433.99 0 692.63 0 759.71 69.55"/>
    <g>
      <path class="cls-1" d="M0,107.96h32.71l12.61,89.72,12.52-89.72h32.69v147.46h-20.37v-112.45l-15.69,112.45h-18.44l-15.67-112.45v112.45H0V107.96Z"/>
      <path class="cls-1" d="M106.34,107.96h66.65v31.48h-41.72v23.44h38.71v30.07h-38.71v29.07h42.93v33.4h-67.86V107.96Z"/>
      <path class="cls-1" d="M187.76,107.96h23.22l30.31,81.58v-81.58h23.44v147.46h-23.44l-30.14-80.96v80.96h-23.39V107.96Z"/>
      <path class="cls-1" d="M333.63,107.96h24.82v87.85c0,8.71-.74,16.94-2.22,24.68-1.48,7.74-3.81,14.51-6.97,20.31-3.17,5.8-6.49,9.87-9.96,12.21-4.83,3.28-10.63,4.92-17.4,4.92-3.92,0-8.19-.5-12.82-1.51-4.63-1.01-8.5-3-11.61-5.98-3.11-2.98-5.96-7.22-8.54-12.72-2.58-5.49-4.35-11.16-5.3-16.99-1.54-9.38-2.31-17.69-2.31-24.93v-87.85h24.82v89.94c0,8.04,1.22,14.32,3.65,18.85,2.43,4.52,5.81,6.78,10.13,6.78s7.64-2.23,10.07-6.68c2.43-4.46,3.65-10.77,3.65-18.95v-89.94Z"/>
    </g>
  </g>
</svg>