<?xml version="1.0" encoding="UTF-8"?>
<svg id="Capa_2" data-name="Capa 2" xmlns="http://www.w3.org/2000/svg" viewBox="0 0 1293.12 257.93">
  <defs>
    <style>
      .cls-1 {
        fill: #fbbf47;
      }

      .cls-2 {
        fill: #f1edd2;
      }

      .cls-3 {
        fill: none;
      }

      .cls-4 {
        fill: #313133;
        font-family: Arial-Black, Arial;
        font-size: 46.29px;
        font-weight: 800;
      }
    </style>
  </defs>
  <g id="Capa_1-2" data-name="Capa 1">
    <g>
      <path class="cls-2" d="M1187.73,230.26V70.48L1116.09,0h-31.95l70.43,70.48v187.45h110.88c15.28,0,27.67-12.39,27.67-27.67h0s-105.39,0-105.39,0Z"/>
      <polygon class="cls-1" points="1287.79 138.86 1203.66 138.86 1203.66 77.07 1265.45 77.07 1287.79 138.86"/>
      <text class="cls-4" transform="translate(1216.66 124.27)"><tspan x="0" y="0">N</tspan></text>
      <polygon class="cls-2" points="1220.36 25.32 1194.9 1.29 1133.11 1.29 1158.57 25.32 1220.36 25.32"/>
      <polygon class="cls-1" points="1262.92 65.67 1231.51 35.7 1169.73 35.7 1201.13 65.67 1262.92 65.67"/>
    </g>
    <path class="cls-2" d="M1122.11,118.96v127.97h-339.81v-127.97h339.81M1133.11,107.96h-361.81v149.97h361.81V107.96h0Z"/>
    <path class="cls-2" d="M753,12.7l-24.41,45.99h-336.9l24.41-45.99h336.9M771.3,1.7h-361.81l-36.09,67.99h361.81L771.3,1.7h0Z"/>
    <path class="cls-2" d="M1061.35,11l45.86,47.55h-317.82l24.67-47.55h247.28M1066.03,0h-258.64l-36.09,69.55h361.81L1066.03,0h0Z"/>
    <g>
      <path class="cls-1" d="M373.4,107.96h32.71l12.61,89.72,12.52-89.72h32.69v147.46h-20.37v-112.45l-15.69,112.45h-18.44l-15.67-112.45v112.45h-20.37V107.96Z"/>
      <path class="cls-1" d="M479.74,107.96h66.65v31.48h-41.72v23.44h38.71v30.07h-38.71v29.07h42.93v33.4h-67.86V107.96Z"/>
      <path class="cls-1" d="M561.16,107.96h23.22l30.31,81.58v-81.58h23.44v147.46h-23.44l-30.14-80.96v80.96h-23.39V107.96Z"/>
      <path class="cls-1" d="M707.03,107.96h24.82v87.85c0,8.71-.74,16.94-2.22,24.68-1.48,7.74-3.81,14.51-6.97,20.31-3.17,5.8-6.49,9.87-9.96,12.21-4.83,3.28-10.63,4.92-17.4,4.92-3.92,0-8.19-.5-12.82-1.51-4.63-1.01-8.5-3-11.61-5.98-3.11-2.98-5.96-7.22-8.54-12.72-2.58-5.49-4.35-11.16-5.3-16.99-1.54-9.38-2.31-17.69-2.31-24.93v-87.85h24.82v89.94c0,8.04,1.22,14.32,3.65,18.85,2.43,4.52,5.81,6.78,10.13,6.78s7.64-2.23,10.07-6.68c2.43-4.46,3.65-10.77,3.65-18.95v-89.94Z"/>
    </g>
    <g>
      <polygon class="cls-3" points="355.1 12.7 63.32 12.7 63.32 58.69 330.69 58.69 355.1 12.7"/>
      <rect class="cls-3" x="2.04" y="117.7" width="324.26" height="127.97"/>
      <polygon class="cls-2" points="326.31 117.7 326.31 245.68 2.04 245.68 2.04 256.68 337.31 256.68 337.31 106.7 22.81 106.7 22.81 117.7 326.31 117.7"/>
      <polygon class="cls-2" points="355.1 12.7 330.69 58.69 0 58.69 0 69.69 337.31 69.69 373.4 1.7 63.32 1.7 63.32 12.7 355.1 12.7"/>
    </g>
  </g>
</svg>