<?xml version="1.0" encoding="UTF-8"?>
<svg id="Capa_1" data-name="Capa 1" xmlns="http://www.w3.org/2000/svg" viewBox="0 0 724.5 368.56">
  <defs>
    <style>
      .cls-1 {
        fill: #fbbf47;
      }

      .cls-2 {
        fill: #f1edd2;
      }

      .cls-3 {
        fill: #313133;
        font-family: Arial-Black, Arial;
        font-size: 64.26px;
        font-weight: 800;
      }
    </style>
  </defs>
  <g>
    <path class="cls-2" d="M0,322.52v-181.99h96.91c24.37,0,42.08,2.05,53.12,6.14,11.04,4.1,19.88,11.38,26.52,21.85,6.64,10.48,9.96,22.45,9.96,35.93,0,17.11-5.03,31.24-15.09,42.39-10.06,11.15-25.1,18.18-45.11,21.08,9.95,5.81,18.17,12.19,24.65,19.13,6.48,6.95,15.22,19.29,26.21,37.02l27.84,44.49h-55.07l-33.29-49.62c-11.82-17.73-19.91-28.9-24.27-33.52-4.36-4.61-8.97-7.78-13.84-9.49-4.88-1.71-12.6-2.57-23.18-2.57h-9.33v95.2h0C20.61,368.56,0,347.95,0,322.52ZM46.04,236.97h34.07c22.09,0,35.88-.93,41.38-2.8,5.49-1.87,9.8-5.08,12.91-9.64,3.11-4.56,4.67-10.26,4.67-17.11,0-7.67-2.05-13.87-6.14-18.59-4.1-4.72-9.88-7.7-17.34-8.94-3.73-.52-14.93-.78-33.6-.78h-35.93v57.86Z"/>
    <path class="cls-2" d="M228.5,368.56v-228.04h46.04v228.04h-46.04Z"/>
    <path class="cls-2" d="M318.41,368.56v-228.04h169.08v38.58h-123.04v50.55h114.48v38.42h-114.48v62.07h127.4v38.42h-173.44Z"/>
  </g>
  <path class="cls-2" d="M578.18,330.14V108.31L478.71,10.45h-44.36l97.79,97.86v260.26h153.94c21.22,0,38.42-17.2,38.42-38.42h0s-146.32,0-146.32,0Z"/>
  <polygon class="cls-1" points="717.1 203.24 600.29 203.24 600.29 117.45 686.08 117.45 717.1 203.24"/>
  <text class="cls-3" transform="translate(618.34 182.98)"><tspan x="0" y="0">N</tspan></text>
  <polygon class="cls-2" points="623.48 45.6 588.12 12.24 502.34 12.24 537.69 45.6 623.48 45.6"/>
  <polygon class="cls-1" points="682.57 101.63 638.96 60.01 553.18 60.01 596.78 101.63 682.57 101.63"/>
  <path class="cls-2" d="M491.85,105.93l-24.93-26.55h-30.17l-44.11-44.54h35.53l-23.97-23.97h-35.41,0s-11.68-10.87-11.68-10.87h-24.78l12.09,12.18h-37.67l-7.56-12.18h-27.7l5.56,12.18h-70.11l-2.94-12.18h-25.5v.55s0,11.63,0,11.63h-64.44l2.71-12.18h-23.8l-5.72,12.18h-39.79l-7.66,23.68,37.84-.25-17.96,43.77H10.83L0,105.93h48.78l-8.98,21.9h50.37l4.52-21.9h83.81v19.84h51l-3.94-19.84h94.25l9.61,21.08h48.61l-13.08-21.08h61.78l19.8,21.08h37.4l-20.87-21.08h28.81ZM178.49,79.38h-78.32l9.09-43.98,69.24-.46v44.45ZM220.28,79.38l-8.87-44.66,75.68-.5,20.6,45.17h-87.41ZM348.46,79.38l-28.17-45.39,38.59-.26,42.89,45.65h-53.31Z"/>
</svg>